<svg width="26" height="26" viewBox="0 0 26 26" fill="none" xmlns="http://www.w3.org/2000/svg">
<path d="M17.2353 1H8.76471C4.47638 1 1 4.47638 1 8.76471V17.2353C1 21.5236 4.47638 25 8.76471 25H17.2353C21.5236 25 25 21.5236 25 17.2353V8.76471C25 4.47638 21.5236 1 17.2353 1Z" stroke="#F6F1E4" stroke-width="2" stroke-linecap="round" stroke-linejoin="round"/>
<path d="M12.9995 18.0909C15.8111 18.0909 18.0903 15.8116 18.0903 13.0001C18.0903 10.1885 15.8111 7.90924 12.9995 7.90924C10.1879 7.90924 7.90869 10.1885 7.90869 13.0001C7.90869 15.8116 10.1879 18.0909 12.9995 18.0909Z" stroke="#F6F1E4" stroke-width="2" stroke-linecap="round" stroke-linejoin="round"/>
<path d="M20.3638 6.09093C20.3638 6.34173 20.1605 6.54504 19.9097 6.54504C19.6589 6.54504 19.4556 6.34173 19.4556 6.09093C19.4556 5.84012 19.6589 5.63681 19.9097 5.63681C20.1605 5.63681 20.3638 5.84013 20.3638 6.09093Z" stroke="#F6F1E4" stroke-width="2"/>
</svg>
