<svg width="26" height="26" viewBox="0 0 26 26" fill="none" xmlns="http://www.w3.org/2000/svg">
<g filter="url(#filter0_d_36_180)">
<path d="M15.8235 1H10.1765C7.31758 1 5 3.31758 5 6.17647V11.8235C5 14.6824 7.31758 17 10.1765 17H15.8235C18.6824 17 21 14.6824 21 11.8235V6.17647C21 3.31758 18.6824 1 15.8235 1Z" stroke="#F6F1E4" stroke-width="1.5" stroke-linecap="round" stroke-linejoin="round"/>
<path d="M13.0003 12.3939C14.8747 12.3939 16.3942 10.8744 16.3942 9C16.3942 7.12561 14.8747 5.60612 13.0003 5.60612C11.1259 5.60612 9.60645 7.12561 9.60645 9C9.60645 10.8744 11.1259 12.3939 13.0003 12.3939Z" stroke="#F6F1E4" stroke-width="1.5" stroke-linecap="round" stroke-linejoin="round"/>
</g>
<defs>
<filter id="filter0_d_36_180" x="0.25" y="0.25" width="25.5" height="25.5" filterUnits="userSpaceOnUse" color-interpolation-filters="sRGB">
<feFlood flood-opacity="0" result="BackgroundImageFix"/>
<feColorMatrix in="SourceAlpha" type="matrix" values="0 0 0 0 0 0 0 0 0 0 0 0 0 0 0 0 0 0 127 0" result="hardAlpha"/>
<feOffset dy="4"/>
<feGaussianBlur stdDeviation="2"/>
<feComposite in2="hardAlpha" operator="out"/>
<feColorMatrix type="matrix" values="0 0 0 0 0 0 0 0 0 0 0 0 0 0 0 0 0 0 0.25 0"/>
<feBlend mode="normal" in2="BackgroundImageFix" result="effect1_dropShadow_36_180"/>
<feBlend mode="normal" in="SourceGraphic" in2="effect1_dropShadow_36_180" result="shape"/>
</filter>
</defs>
</svg>
